<svg width="129" height="49" viewBox="0 0 129 49" fill="none" xmlns="http://www.w3.org/2000/svg">
<path d="M90.6414 24.221V26.4862H88.9294V33.2969H85.5034V26.4862H83.7895V33.2969H80.3654V26.4862H78.6534V33.2969H70.6538L69.5081 31.0354V26.4862H67.211V33.2969H63.7869V19.6755H72.9322V21.937H67.211V24.221H72.9322V31.0354H75.2105V24.221H80.3654V21.937H83.7895V24.221H85.5034V21.937H88.9294V24.221H90.6414ZM62.6543 26.4675H59.2302V28.7514H62.6543V26.4675ZM104.927 19.6755H101.503V21.937H104.927V19.6755ZM104.927 33.2969V24.221L101.501 24.2023V33.2969H104.927ZM115.204 26.4862V33.2969H111.779V26.4862H110.065V33.2969H106.639V24.221H119.214L120.341 26.4862V33.2969H116.917V26.4862H115.204ZM58.0807 19.6755H54.6548V33.295H58.0807V19.6755ZM94.0674 26.4862H96.3626V31.0354H94.0674V26.4862ZM99.7886 33.2969V24.221H91.7891L90.6414 26.4862V31.0354L91.7891 33.2969H99.7886ZM49.5186 33.2969H52.9427V19.6755H46.6571L42.0835 33.2969H45.5095L47.2215 28.7701H49.5186V33.2969ZM49.5186 21.937V26.4862H47.7878L49.5186 21.937Z" fill="#005BAA"/>
<path d="M21.795 26.339L25.2244 22.9234L21.795 19.5096L18.3657 22.9234L21.795 26.339ZM18.3486 29.7924L14.9136 26.3616L11.4502 29.7773L8 26.3466L21.795 12.6406L35.5806 26.3616L32.1437 29.7773L28.7162 26.3616L25.2509 29.815L28.6783 33.2268L25.2509 36.6406L21.7288 33.2268L18.3486 36.6406L14.8928 33.2381L18.3486 29.7924Z" fill="#00AEEF"/>
</svg>
