<svg width="113" height="24" viewBox="0 0 113 24" fill="none" xmlns="http://www.w3.org/2000/svg">
<path d="M82.6412 11.5803V13.8456H80.9291V20.6562H77.5032V13.8456H75.7893V20.6562H72.3652V13.8456H70.6532V20.6562H62.6536L61.5079 18.3948V13.8456H59.2107V20.6562H55.7866V7.0349H64.9319V9.2964H59.2107V11.5803H64.9319V18.3948H67.2103V11.5803H72.3652V9.2964H75.7893V11.5803H77.5032V9.2964H80.9291V11.5803H82.6412ZM54.6541 13.8269H51.23V16.1108H54.6541V13.8269ZM96.9264 7.0349H93.5023V9.2964H96.9264V7.0349ZM96.9264 20.6562V11.5803L93.5004 11.5616V20.6562H96.9264ZM107.204 13.8456V20.6562H103.778V13.8456H102.064V20.6562H98.6384V11.5803H111.213L112.34 13.8456V20.6562H108.916V13.8456H107.204ZM50.0805 7.0349H46.6545V20.6544H50.0805V7.0349ZM86.0671 13.8456H88.3624V18.3948H86.0671V13.8456ZM91.7884 20.6562V11.5803H83.7888L82.6412 13.8456V18.3948L83.7888 20.6562H91.7884ZM41.5184 20.6562H44.9425V7.0349H38.6568L34.0833 20.6562H37.5092L39.2212 16.1295H41.5184V20.6562ZM41.5184 9.2964V13.8456H39.7875L41.5184 9.2964Z" fill="white"/>
<path d="M13.795 13.6984L17.2244 10.2828L13.795 6.86898L10.3657 10.2828L13.795 13.6984ZM10.3486 17.1517L6.91359 13.721L3.45017 17.1367L0 13.7059L13.795 -5.66624e-08L27.5806 13.721L24.1437 17.1367L20.7162 13.721L17.2509 17.1743L20.6783 20.5862L17.2509 24L13.7288 20.5862L10.3486 24L6.89278 20.5975L10.3486 17.1517Z" fill="#00AEEF"/>
</svg>
